<?xml version="1.0" encoding="utf-8"?>
<!-- Generator: Adobe Illustrator 27.0.0, SVG Export Plug-In . SVG Version: 6.00 Build 0)  -->
<svg version="1.1" id="Layer_1" xmlns="http://www.w3.org/2000/svg" xmlns:xlink="http://www.w3.org/1999/xlink" x="0px" y="0px"
	 viewBox="0 0 1853.7 1853.7" style="enable-background:new 0 0 1853.7 1853.7;" xml:space="preserve">
<style type="text/css">
	.st0{fill:none;stroke:#000000;stroke-width:100;stroke-miterlimit:10;}
</style>
<g>
	<path d="M1644.4,100c60.4,0,109.3,48.9,109.3,109.3v1435.1c0,60.4-48.9,109.3-109.3,109.3H209.3c-60.4,0-109.3-48.9-109.3-109.3
		V209.3c0-60.4,48.9-109.3,109.3-109.3H1644.4 M1644.4,0H209.3c-28.2,0-55.6,5.5-81.5,16.5C102.9,27,80.5,42.1,61.3,61.3
		C42.1,80.5,27,102.9,16.5,127.8C5.5,153.7,0,181.1,0,209.3v1435.1c0,28.2,5.5,55.6,16.5,81.5c10.5,24.9,25.6,47.3,44.8,66.5
		c19.2,19.2,41.6,34.3,66.5,44.8c25.9,10.9,53.3,16.5,81.5,16.5h1435.1c28.2,0,55.6-5.5,81.5-16.5c24.9-10.5,47.3-25.6,66.5-44.8
		c19.2-19.2,34.3-41.6,44.8-66.5c10.9-25.9,16.5-53.3,16.5-81.5V209.3c0-28.2-5.5-55.6-16.5-81.5c-10.5-24.9-25.6-47.3-44.8-66.5
		c-19.2-19.2-41.6-34.3-66.5-44.8C1700,5.5,1672.6,0,1644.4,0L1644.4,0z"/>
</g>
<g>
	<line class="st0" x1="495.3" y1="46" x2="495.3" y2="1807.7"/>
	<line class="st0" x1="934.9" y1="46" x2="934.9" y2="1807.7"/>
	<line class="st0" x1="1358.4" y1="46" x2="1358.4" y2="1807.7"/>
</g>
<g>
	<line class="st0" x1="46" y1="1358.4" x2="1807.7" y2="1358.4"/>
	<line class="st0" x1="46" y1="918.8" x2="1807.7" y2="918.8"/>
	<line class="st0" x1="46" y1="495.3" x2="1807.7" y2="495.3"/>
</g>
</svg>
