<?xml version="1.0" encoding="utf-8"?>
<!-- Generator: Adobe Illustrator 27.0.0, SVG Export Plug-In . SVG Version: 6.00 Build 0)  -->
<svg version="1.1" id="Layer_1" xmlns="http://www.w3.org/2000/svg" xmlns:xlink="http://www.w3.org/1999/xlink" x="0px" y="0px"
	 viewBox="0 0 1853.7 1853.7" style="enable-background:new 0 0 1853.7 1853.7;" xml:space="preserve">
<style type="text/css">
	.st0{fill:#FFA80A;}
	.st1{fill:none;stroke:#000000;stroke-width:100;stroke-miterlimit:10;}
</style>
<g>
	<path class="st0" d="M141.8,1487.5c-49.6,0-90-40.4-90-90V456.2c0-49.6,40.4-90,90-90h1570.2c49.6,0,90,40.4,90,90v941.2
		c0,49.6-40.4,90-90,90H141.8z"/>
	<path d="M1711.9,416.2c22.1,0,40,17.9,40,40v941.2c0,22.1-17.9,40-40,40H141.8c-22.1,0-40-17.9-40-40V456.2c0-22.1,17.9-40,40-40
		H1711.9 M1711.9,316.2H141.8c-18.9,0-37.2,3.7-54.5,11c-16.7,7.1-31.6,17.1-44.5,30c-12.8,12.8-22.9,27.8-30,44.5
		c-7.3,17.3-11,35.7-11,54.5v941.2c0,18.9,3.7,37.2,11,54.5c7.1,16.7,17.1,31.6,30,44.5c12.8,12.8,27.8,22.9,44.5,30
		c17.3,7.3,35.7,11,54.5,11h1570.2c18.9,0,37.2-3.7,54.5-11c16.7-7.1,31.6-17.1,44.5-30c12.8-12.8,22.9-27.8,30-44.5
		c7.3-17.3,11-35.7,11-54.5V456.2c0-18.9-3.7-37.2-11-54.5c-7.1-16.7-17.1-31.6-30-44.5c-12.8-12.8-27.8-22.9-44.5-30
		C1749.2,320,1730.8,316.2,1711.9,316.2L1711.9,316.2z"/>
</g>
<g>
	<line class="st1" x1="2087" y1="409.6" x2="2087" y2="2171.3"/>
	<line class="st1" x1="2526.6" y1="409.6" x2="2526.6" y2="2171.3"/>
	<line class="st1" x1="2950.1" y1="409.6" x2="2950.1" y2="2171.3"/>
</g>
<g>
	<line class="st1" x1="46" y1="1138.6" x2="1807.7" y2="1138.6"/>
	<line class="st1" x1="46" y1="715.1" x2="1807.7" y2="715.1"/>
</g>
</svg>
