<?xml version="1.0" encoding="utf-8"?>
<!-- Generator: Adobe Illustrator 27.0.0, SVG Export Plug-In . SVG Version: 6.00 Build 0)  -->
<svg version="1.1" id="Layer_1" xmlns="http://www.w3.org/2000/svg" xmlns:xlink="http://www.w3.org/1999/xlink" x="0px" y="0px"
	 viewBox="0 0 1853.7 1853.7" style="enable-background:new 0 0 1853.7 1853.7;" xml:space="preserve">
<style type="text/css">
	.st0{fill:#FFA80A;}
	.st1{fill:none;stroke:#000000;stroke-width:100;stroke-miterlimit:10;}
</style>
<g>
	<path class="st0" d="M453.6,1487.5c-54.2,0-106.9-10.6-156.4-31.6c-47.9-20.2-90.8-49.2-127.7-86.1
		c-36.9-36.9-65.9-79.9-86.1-127.7c-21-49.6-31.6-102.2-31.6-156.4V768.1c0-54.2,10.6-106.9,31.6-156.4
		c20.2-47.9,49.2-90.8,86.1-127.7c36.9-36.9,79.9-65.9,127.7-86.1c49.6-21,102.2-31.6,156.4-31.6h946.4
		c54.2,0,106.9,10.6,156.4,31.6c47.9,20.2,90.8,49.2,127.7,86.1c36.9,36.9,65.9,79.9,86.1,127.7c21,49.6,31.6,102.2,31.6,156.4
		v317.5c0,54.2-10.6,106.9-31.6,156.4c-20.2,47.9-49.2,90.8-86.1,127.7s-79.9,65.9-127.7,86.1c-49.6,21-102.2,31.6-156.4,31.6H453.6
		z"/>
	<path d="M1400.1,416.2c194.3,0,351.9,157.5,351.9,351.9v317.5c0,194.3-157.5,351.9-351.9,351.9H453.6
		c-194.3,0-351.9-157.5-351.9-351.9V768.1c0-194.3,157.5-351.9,351.9-351.9H1400.1 M1400.1,316.2H453.6c-61,0-120.1,12-175.9,35.6
		c-53.8,22.8-102.1,55.3-143.6,96.8c-41.5,41.5-74,89.8-96.8,143.6C13.7,648,1.8,707.2,1.8,768.1v317.5c0,61,12,120.2,35.6,175.9
		c22.8,53.8,55.3,102.1,96.8,143.6c41.5,41.5,89.8,74,143.6,96.8c55.8,23.6,115,35.6,175.9,35.6h946.4c61,0,120.2-12,175.9-35.6
		c53.8-22.8,102.1-55.3,143.6-96.8c41.5-41.5,74-89.8,96.8-143.6c23.6-55.8,35.6-115,35.6-175.9V768.1c0-61-12-120.2-35.6-175.9
		c-22.8-53.8-55.3-102.1-96.8-143.6c-41.5-41.5-89.8-74-143.6-96.8C1520.2,328.2,1461,316.2,1400.1,316.2L1400.1,316.2z"/>
</g>
<g>
	<line class="st1" x1="2087" y1="409.6" x2="2087" y2="2171.3"/>
	<line class="st1" x1="2526.6" y1="409.6" x2="2526.6" y2="2171.3"/>
	<line class="st1" x1="2950.1" y1="409.6" x2="2950.1" y2="2171.3"/>
</g>
<path d="M392.8,751.1c2-11.8,12.2-20.5,24.2-20.5h32c12,0,22.2,8.7,24.2,20.5l6,36c19.3,6.4,36.9,16.7,51.7,29.9l34.2-12.8
	c11.2-4.2,23.8,0.3,29.8,10.7l16,27.7c6,10.4,3.6,23.6-5.6,31.2L577.2,897c4.1,19.7,4.1,40,0,59.7l28.2,23.2
	c9.3,7.6,11.6,20.8,5.6,31.2l-16,27.7c-6,10.4-18.6,14.9-29.8,10.7l-34.2-12.8c-14.8,13.2-32.4,23.5-51.7,29.9l-6,36
	c-2,11.8-12.2,20.5-24.2,20.5h-32c-12,0-22.2-8.7-24.2-20.5l-6-36c-19.1-6.3-36.7-16.5-51.7-29.9l-34.2,12.8
	c-11.2,4.2-23.9-0.3-29.9-10.7l-16-27.7c-6-10.4-3.6-23.6,5.6-31.2l28.2-23.2c-4.1-19.7-4.1-40,0-59.7l-28.2-23.2
	c-9.3-7.6-11.6-20.8-5.6-31.2l16-27.7c6-10.4,18.6-14.9,29.9-10.7l34.2,12.8c15-13.4,32.6-23.6,51.7-29.9L392.8,751.1z"/>
<path d="M1380.5,751.1c2-11.8,12.2-20.5,24.2-20.5h32c12,0,22.2,8.7,24.2,20.5l6,36c19.3,6.4,36.9,16.7,51.7,29.9l34.2-12.8
	c11.2-4.2,23.8,0.3,29.8,10.7l16,27.7c6,10.4,3.6,23.6-5.6,31.2l-28.2,23.2c4.1,19.7,4.1,40,0,59.7l28.2,23.2
	c9.3,7.6,11.6,20.8,5.6,31.2l-16,27.7c-6,10.4-18.6,14.9-29.8,10.7l-34.2-12.8c-14.8,13.2-32.4,23.5-51.7,29.9l-6,36
	c-2,11.8-12.2,20.5-24.2,20.5h-32c-12,0-22.2-8.7-24.2-20.5l-6-36c-19.1-6.3-36.7-16.5-51.7-29.9l-34.2,12.8
	c-11.2,4.2-23.9-0.3-29.9-10.7l-16-27.7c-6-10.4-3.6-23.6,5.6-31.2l28.2-23.2c-4.1-19.7-4.1-40,0-59.7l-28.2-23.2
	c-9.3-7.6-11.6-20.8-5.6-31.2l16-27.7c6-10.4,18.6-14.9,29.9-10.7l34.2,12.8c15-13.4,32.6-23.6,51.7-29.9L1380.5,751.1z"/>
</svg>
